<?xml version="1.0" standalone="no"?>
<!DOCTYPE svg PUBLIC "-//W3C//DTD SVG 20010904//EN"
 "http://www.w3.org/TR/2001/REC-SVG-20010904/DTD/svg10.dtd">
<svg version="1.0" xmlns="http://www.w3.org/2000/svg"
 width="2000.000000pt" height="2090.000000pt" viewBox="0 0 2000.000000 2090.000000"
 preserveAspectRatio="xMidYMid meet">

<g transform="translate(0.000000,2090.000000) scale(0.100000,-0.100000)"
fill="#000000" stroke="none">
<path d="M5265 16658 c-11 -66 -25 -294 -25 -409 l0 -119 343 0 344 0 7 178
c4 97 13 223 19 280 l12 102 -347 0 -347 0 -6 -32z"/>
<path d="M14047 16588 c6 -57 15 -183 19 -280 l7 -178 344 0 343 0 0 119 c0
115 -14 343 -25 409 l-6 32 -347 0 -347 0 12 -102z"/>
<path d="M10295 14294 c-16 -2 -79 -9 -140 -15 -260 -26 -553 -89 -800 -172
-377 -128 -733 -324 -1050 -577 -145 -117 -392 -358 -507 -495 -488 -585 -763
-1250 -854 -2070 -21 -195 -29 -659 -15 -875 69 -1024 397 -1815 1006 -2426
594 -596 1321 -929 2270 -1041 189 -22 882 -26 1065 -5 703 78 1227 255 1690
569 l115 78 3 1808 2 1807 -1270 0 -1270 0 0 -390 0 -390 823 -2 822 -3 3
-1166 2 -1167 -102 -45 c-304 -133 -662 -218 -1043 -248 -182 -14 -545 -7
-730 15 -883 106 -1538 485 -1977 1146 -334 503 -493 1138 -475 1905 18 789
221 1394 641 1915 132 165 364 378 556 512 433 303 1012 468 1639 468 737 -1
1413 -179 1985 -524 60 -36 111 -66 113 -66 2 0 3 216 3 479 l0 480 -107 57
c-446 240 -1007 387 -1648 434 -127 9 -678 12 -750 4z"/>
<path d="M5240 4651 c0 -115 14 -343 25 -408 l6 -33 347 0 347 0 -12 103 c-6
56 -15 182 -19 280 l-7 177 -344 0 -343 0 0 -119z"/>
<path d="M14066 4593 c-4 -98 -13 -224 -19 -280 l-12 -103 347 0 347 0 5 33
c12 70 26 295 26 408 l0 119 -343 0 -344 0 -7 -177z"/>
</g>
</svg>
